<svg width="200" height="165" viewBox="0 0 200 165" fill="none" xmlns="http://www.w3.org/2000/svg">
<path d="M163.723 9.61693C112.167 -4.85543 58.4864 7.3459 40.6946 18.3047L29.3381 16.0526L19.4959 21.7307C-13.8165 53.1504 13.4391 143.245 14.5747 146.274C15.7104 149.302 114.133 165.075 125.111 161.416C147.824 153.845 192.493 121.668 195.522 112.204C196.127 110.311 207.635 21.9434 163.723 9.61693Z" fill="#E3AC73"/>
<path d="M40.6946 18.3048C58.4864 7.34593 112.167 -4.85539 163.723 9.61696C207.635 21.9435 196.127 110.312 195.522 112.204C192.493 121.668 147.824 153.845 125.111 161.416C114.133 165.075 15.7104 149.302 14.5747 146.274C13.4391 143.245 -13.8165 53.1505 19.4959 21.7307C35.55 6.58874 44.1014 21.7308 51.6725 29.6803" stroke="#744734" stroke-width="5"/>
<path d="M29.338 33.0875C32.972 32.4818 40.6945 39.5231 42.9658 42.5515C66.8901 39.2202 86.2467 44.9489 92.9344 48.2297C103.912 37.2518 115.72 34.2234 123.218 52.7723C137.603 88.356 128.897 138.324 123.218 146.652C117.54 154.981 53.1866 149.303 29.338 138.325C5.4893 127.347 16.0887 57.6935 18.7386 48.2297C21.3884 38.766 24.7954 33.8446 29.338 33.0875Z" fill="#EADED0" stroke="#744734" stroke-width="5"/>
<path d="M56 85.9999L63.9496 90.5425L68.8707 85.9999" stroke="#744734" stroke-width="5" stroke-linecap="round"/>
<path d="M89.5276 39.1439C94.5749 33.4656 106.789 22.7148 115.269 25.1375C123.749 27.5602 131.925 38.7654 134.954 44.0652" stroke="#744734" stroke-width="5" stroke-linecap="round"/>
<ellipse cx="39.0807" cy="79.6905" rx="5.08218" ry="7.83256" transform="rotate(6.66763 39.0807 79.6905)" fill="#744734"/>
<ellipse cx="91.3455" cy="83.0307" rx="5.08218" ry="7.83256" transform="rotate(1.04837 91.3455 83.0307)" fill="#744734"/>
<path d="M91.4204 98.0264L101.879 96.305" stroke="#E7B8B8" stroke-width="7" stroke-linecap="round"/>
<path d="M27.824 91.0054L37.836 94.4848" stroke="#E7B8B8" stroke-width="7" stroke-linecap="round"/>
</svg>
