<svg width="260" height="138" viewBox="0 0 260 138" fill="none" xmlns="http://www.w3.org/2000/svg">
<path d="M31.9773 135.015L5.24001 89.0151C2.91505 85.0152 5.80082 80 10.4274 80H249.573C254.199 80 257.085 85.0152 254.76 89.0151L228.023 135.015C226.949 136.863 224.973 138 222.835 138H37.1647C35.0274 138 33.0514 136.863 31.9773 135.015Z" fill="#EAB668"/>
<circle cx="18" cy="80" r="16" fill="#F8CD8C"/>
<circle cx="82" cy="80" r="16" fill="#F8CD8C"/>
<circle cx="50" cy="80" r="16" fill="#F8CD8C"/>
<circle cx="210" cy="80" r="16" fill="#F8CD8C"/>
<circle cx="242" cy="80" r="16" fill="#F8CD8C"/>
<circle cx="114" cy="80" r="16" fill="#F8CD8C"/>
<circle cx="178" cy="80" r="16" fill="#F8CD8C"/>
<circle cx="146" cy="80" r="16" fill="#F8CD8C"/>
<path d="M247 80C247 80 195.893 79.5 131 79.5C66.1065 79.5 12 80 12 80C12 50.1766 64.6065 26 129.5 26C194.393 26 247 50.1766 247 80Z" fill="#F8CD8C"/>
<path d="M227 59C227 66.732 183.572 71 130 71C76.4284 71 33 66.732 33 59C33 51.268 76.4284 33 130 33C183.572 33 227 51.268 227 59Z" fill="#DB4B4B"/>
<mask id="mask0_137_236" style="mask-type:alpha" maskUnits="userSpaceOnUse" x="2" y="26" width="256" height="70">
<circle cx="18" cy="80" r="16" fill="#F8CD8C"/>
<circle cx="82" cy="80" r="16" fill="#F8CD8C"/>
<circle cx="50" cy="80" r="16" fill="#F8CD8C"/>
<circle cx="210" cy="80" r="16" fill="#F8CD8C"/>
<circle cx="242" cy="80" r="16" fill="#F8CD8C"/>
<circle cx="114" cy="80" r="16" fill="#F8CD8C"/>
<circle cx="178" cy="80" r="16" fill="#F8CD8C"/>
<circle cx="146" cy="80" r="16" fill="#F8CD8C"/>
<path d="M247 80C247 80 195.893 79.5 131 79.5C66.1065 79.5 12 80 12 80C12 50.1766 64.6065 26 129.5 26C194.393 26 247 50.1766 247 80Z" fill="#F8CD8C"/>
</mask>
<g mask="url(#mask0_137_236)">
<rect x="63" y="68.8704" width="109" height="9" transform="rotate(-24.887 63 68.8704)" fill="#F8CD8C"/>
<rect x="141" y="76.8704" width="109" height="9" transform="rotate(-24.887 141 76.8704)" fill="#F8CD8C"/>
<rect x="23" y="66.8704" width="109" height="9" transform="rotate(-24.887 23 66.8704)" fill="#F8CD8C"/>
<rect x="164.431" y="80.0007" width="85.2083" height="9" transform="rotate(-146.961 164.431 80.0007)" fill="#F8CD8C"/>
<rect x="210.431" y="77.0007" width="85.2083" height="9" transform="rotate(-146.961 210.431 77.0007)" fill="#F8CD8C"/>
<rect x="121.431" y="88.0007" width="85.2083" height="9" transform="rotate(-146.961 121.431 88.0007)" fill="#F8CD8C"/>
<rect x="102" y="72.8704" width="109" height="9" transform="rotate(-24.887 102 72.8704)" fill="#F8CD8C"/>
</g>
<circle cx="130" cy="22" r="9" fill="#DB4B4B"/>
<path d="M136.088 4.26025C137.071 4.76396 138.276 4.3754 138.78 3.39237C139.284 2.40934 138.895 1.2041 137.912 0.700385L136.088 4.26025ZM132 16C132 13.2401 132.346 9.40009 133.289 6.68145C133.773 5.28696 134.308 4.5064 134.742 4.18166C134.919 4.04889 135.058 4.00769 135.191 4.00101C135.34 3.99357 135.626 4.02351 136.088 4.26025L137.912 0.700385C136.974 0.219754 135.991 -0.0440342 134.991 0.00600886C133.977 0.0568058 133.087 0.424308 132.346 0.979014C130.942 2.02924 130.077 3.73878 129.511 5.37012C128.354 8.70315 128 13.0577 128 16H132Z" fill="#DB4B4B"/>
</svg>
