<svg width="537" height="748" viewBox="0 0 537 748" fill="none" xmlns="http://www.w3.org/2000/svg">
<path d="M283.277 11.8255L515 556.5L496 564.5L269 10H280.516C281.719 10 282.806 10.7186 283.277 11.8255Z" fill="#D69535"/>
<path d="M262.957 13.3725C265.004 8.43571 271.996 8.43569 274.043 13.3725L497.589 552.703C499.226 556.653 496.323 561 492.046 561H44.9541C40.6774 561 37.7738 556.653 39.4114 552.703L262.957 13.3725Z" fill="#FFD375"/>
<path d="M37 564.879C37 543.903 54.8508 527.361 75.7668 528.957L270.259 543.791C272.084 543.93 273.917 543.932 275.742 543.796L476.262 528.881C497.175 527.326 515 543.874 515 564.845C515 584.001 500.023 599.815 480.896 600.855L276 612L71.0702 600.853C51.9616 599.814 37 584.016 37 564.879Z" fill="#D69535"/>
<circle cx="174" cy="454" r="30" fill="#CB2929"/>
<circle cx="339.219" cy="302" r="30" fill="#CB2929"/>
<path d="M244.953 251.827L231.48 256.422C229.912 256.957 228.207 256.119 227.672 254.551L224.66 245.719C224.126 244.151 222.421 243.313 220.853 243.848L211.543 247.023C210.251 247.463 208.787 246.935 208.083 245.765C181.413 201.452 253.772 178.297 257.83 228.909C257.936 230.23 257.105 231.485 255.85 231.913L245.683 235.38C244.115 235.915 243.277 237.62 243.812 239.188L246.824 248.02C247.359 249.588 246.521 251.293 244.953 251.827Z" fill="#DFC0A0"/>
<path d="M303.074 441.371L291.746 432.75C290.428 431.747 290.172 429.865 291.176 428.546L296.826 421.121C297.83 419.802 297.574 417.92 296.256 416.917L288.428 410.96C287.342 410.133 286.964 408.623 287.543 407.386C309.448 360.535 369.024 407.681 329.279 439.277C328.241 440.102 326.736 440.112 325.681 439.309L317.133 432.804C315.814 431.801 313.932 432.056 312.929 433.375L307.278 440.8C306.274 442.119 304.392 442.374 303.074 441.371Z" fill="#DFC0A0"/>
<ellipse cx="289.563" cy="143.394" rx="11.5" ry="20" transform="rotate(15.9855 289.563 143.394)" fill="#6DA477"/>
<ellipse cx="289.563" cy="143.394" rx="11.5" ry="20" transform="rotate(15.9855 289.563 143.394)" fill="#6DA477"/>
<ellipse cx="402.563" cy="481.394" rx="11.5" ry="20" transform="rotate(2.05161 402.563 481.394)" fill="#6DA477"/>
<ellipse cx="402.563" cy="481.394" rx="11.5" ry="20" transform="rotate(2.05161 402.563 481.394)" fill="#6DA477"/>
<ellipse cx="225.782" cy="354.394" rx="11.5" ry="20" transform="rotate(-40.8609 225.782 354.394)" fill="#6DA477"/>
<ellipse cx="225.782" cy="354.394" rx="11.5" ry="20" transform="rotate(-40.8609 225.782 354.394)" fill="#6DA477"/>
<ellipse cx="255.584" cy="449.15" rx="8.26279" ry="8.91688" transform="rotate(-40.8609 255.584 449.15)" fill="#F7C865"/>
<ellipse cx="268.083" cy="82.1496" rx="8.26279" ry="8.91688" transform="rotate(-40.8609 268.083 82.1496)" fill="#F7C865"/>
<ellipse cx="244.083" cy="142.15" rx="8.26279" ry="8.91688" transform="rotate(-40.8609 244.083 142.15)" fill="#F7C865"/>
<ellipse cx="302.083" cy="264.15" rx="8.26279" ry="8.91688" transform="rotate(-40.8609 302.083 264.15)" fill="#F7C865"/>
<ellipse cx="186.083" cy="299.15" rx="8.26279" ry="8.91688" transform="rotate(-40.8609 186.083 299.15)" fill="#F7C865"/>
<ellipse cx="365.083" cy="377.15" rx="8.26279" ry="8.91688" transform="rotate(-40.8609 365.083 377.15)" fill="#F7C865"/>
<ellipse cx="351.083" cy="490.15" rx="8.26279" ry="8.91688" transform="rotate(-40.8609 351.083 490.15)" fill="#F7C865"/>
<ellipse cx="103.083" cy="501.15" rx="8.26279" ry="8.91688" transform="rotate(-40.8609 103.083 501.15)" fill="#F7C865"/>
</svg>
